<?xml version="1.0" encoding="UTF-8"?>
<svg id="Layer_2" data-name="Layer 2" xmlns="http://www.w3.org/2000/svg" viewBox="0 0 85.8 78.75">
  <defs>
    <style>
      .cls-1 {
        font-size: 4.9px;
      }

      .cls-1, .cls-2, .cls-3 {
        fill: #dedfe2;
      }

      .cls-1, .cls-3 {
        font-family: CenturyGothic-Bold, 'Century Gothic';
        font-weight: 700;
      }

      .cls-3 {
        font-size: 5.6px;
        letter-spacing: .03em;
      }
    </style>
  </defs>
  <g id="Layer_1-2" data-name="Layer 1">
    <path class="cls-2" d="m40.37,51.6c-3.48,1.82-6.55,2.97-8.82,3.72-8.12,2.65-11.79,1.84-13.3,1.4-.45-.13-.82-.26-1.05-.35v-22.75l23.1-9.45.07,27.43Z"/>
    <polygon class="cls-2" points="43.8 50.4 43.8 19.25 28.75 25.2 28.75 21.7 52.2 11.9 52.2 46.2 43.8 50.4"/>
    <polygon class="cls-2" points="62.7 39.9 55.35 44.45 55.35 7.35 40.65 13.3 40.65 9.8 63.75 0 63.75 36.75 60.25 37.45 62.7 39.9"/>
    <path class="cls-2" d="m74.25,36.05l-12.25,1.75,2.1,2.1c-.95.62-2.26,1.47-3.85,2.45-1.44.89-4.21,2.57-9.8,5.6-4.96,2.69-7.44,4.04-10.15,5.25-2.69,1.21-5.42,2.24-8.4,3.15-2.2.67-3.61,1.11-5.6,1.4-3.5.52-7.9,1.17-9.45-1.05-1.28-1.84-.02-4.77.35-5.6-.58.46-2.11,1.83-2.74,4.17-.19.72-.8,3,.29,4.93,1.71,3,6.36,3.1,8.75,3.15,2.9.06,5.95-.7,5.95-.7h0c1.47-.34,2.83-.76,4.9-1.4,1.26-.39,3.2-1,5.72-1.95,2.53-.95,4.47-1.8,5.48-2.25,4.54-2.05,7.75-3.86,10.85-5.6,4.46-2.51,7.9-4.7,9.8-5.95.87-.57,1.59-1.05,2.1-1.4.58.7,1.17,1.4,1.75,2.1l4.2-10.15Z"/>
    <text class="cls-1" transform="translate(10.03 70.47)"><tspan x="0" y="0">CONSULTORÍA EMPRESARIAL</tspan></text>
    <text class="cls-3" transform="translate(0 77.03)"><tspan x="0" y="0">JARAMILLO &amp; ASOCIADOS SAS</tspan></text>
    <path class="cls-2" d="m12.87,60.6c.34.63.99,1.62,2.1,2.45,1.19.88,2.42,1.22,3.5,1.4,5.7.96,13.3-1.05,13.3-1.05.8-.21,4.54-1.22,9.45-3.15,5.67-2.23,9.89-4.49,12.6-5.95,2.55-1.38,4.29-2.42,6.65-3.85,0,0,3.8-2.29,6.24-4.16,0,0,.06-.04.06-.04,0,0,0,0,0,0-5.29,4.39-11.9,8.05-11.9,8.05-.88.5-1.82,1.04-3.15,1.75-7.74,4.12-14.01,6.16-16.8,7-1.09.33-1.64.49-2.45.7-1.77.45-15.41,3.91-18.9-1.4-.44-.67-.62-1.33-.7-1.75Z"/>
  </g>
</svg>