<?xml version="1.0" encoding="UTF-8"?>
<svg id="Layer_2" data-name="Layer 2" xmlns="http://www.w3.org/2000/svg" viewBox="0 0 171.61 157.5">
  <defs>
    <style>
      .cls-1, .cls-2 {
        fill: #015ba1;
      }

      .cls-2 {
        font-size: 11.2px;
        letter-spacing: .03em;
      }

      .cls-2, .cls-3 {
        font-family: CenturyGothic-Bold, 'Century Gothic';
        font-weight: 700;
      }

      .cls-4, .cls-3 {
        fill: #f5a333;
      }

      .cls-5 {
        fill: #009cd6;
      }

      .cls-6 {
        fill: #0074bd;
      }

      .cls-3 {
        font-size: 9.8px;
      }
    </style>
  </defs>
  <g id="Layer_1-2" data-name="Layer 1">
    <path class="cls-5" d="m88.45,103.2c-6.96,3.63-13.09,5.95-17.64,7.43-16.23,5.3-23.59,3.68-26.6,2.8-.9-.26-1.63-.52-2.1-.7v-45.5l46.2-18.9.14,54.87Z"/>
    <polygon class="cls-6" points="95.31 100.8 95.31 38.5 65.21 50.4 65.21 43.4 112.11 23.8 112.11 92.4 95.31 100.8"/>
    <polygon class="cls-1" points="133.11 79.8 118.41 88.9 118.41 14.7 89.01 26.6 89.01 19.6 135.21 0 135.21 73.5 128.21 74.9 133.11 79.8"/>
    <path class="cls-4" d="m156.21,72.1l-24.5,3.5,4.2,4.2c-1.89,1.24-4.52,2.94-7.7,4.9-2.89,1.78-8.43,5.14-19.6,11.2-9.93,5.39-14.89,8.08-20.3,10.5-5.39,2.41-10.85,4.48-16.8,6.3-4.4,1.35-7.23,2.21-11.2,2.8-6.99,1.04-15.79,2.34-18.9-2.1-2.57-3.67-.04-9.54.7-11.2-1.15.93-4.22,3.65-5.48,8.34-.39,1.45-1.61,6,.58,9.86,3.41,6,12.73,6.2,17.5,6.3,5.81.12,11.9-1.4,11.9-1.4h0c2.93-.68,5.66-1.51,9.8-2.8,2.52-.79,6.4-2,11.44-3.9,5.05-1.9,8.95-3.6,10.96-4.5,9.07-4.11,15.5-7.71,21.7-11.2,8.93-5.01,15.8-9.41,19.6-11.9,1.73-1.14,3.17-2.1,4.2-2.8,1.17,1.4,2.33,2.8,3.5,4.2l8.4-20.3Z"/>
    <text class="cls-3" transform="translate(27.76 140.93)"><tspan x="0" y="0">CONSULTORÍA EMPRESARIAL</tspan></text>
    <text class="cls-2" transform="translate(0 154.06)"><tspan x="0" y="0">JARAMILLO &amp; ASOCIADOS SAS</tspan></text>
    <path class="cls-6" d="m32.69,121.19c.69,1.27,1.97,3.24,4.2,4.9,2.38,1.77,4.85,2.44,7,2.8,11.4,1.92,26.6-2.1,26.6-2.1,1.61-.43,9.07-2.43,18.9-6.3,11.34-4.46,19.77-8.97,25.2-11.9,5.11-2.76,8.57-4.85,13.3-7.7,0,0,7.59-4.58,12.48-8.31,0,0,.12-.09.12-.09,0,0,0,0,0,0-10.58,8.78-23.8,16.1-23.8,16.1-1.75,1-3.64,2.09-6.3,3.5-15.47,8.23-28.03,12.32-33.6,14-2.19.66-3.28.99-4.9,1.4-3.54.9-30.81,7.82-37.8-2.8-.88-1.34-1.24-2.66-1.4-3.5Z"/>
  </g>
</svg>