<?xml version="1.0" encoding="UTF-8"?>
<svg id="Layer_2" data-name="Layer 2" xmlns="http://www.w3.org/2000/svg" viewBox="0 0 245.16 224.99">
  <defs>
    <style>
      .cls-1 {
        font-size: 14px;
      }

      .cls-1, .cls-2, .cls-3 {
        fill: #dedfe2;
      }

      .cls-1, .cls-3 {
        font-family: CenturyGothic-Bold, 'Century Gothic';
        font-weight: 700;
      }

      .cls-3 {
        font-size: 16px;
        letter-spacing: .03em;
      }
    </style>
  </defs>
  <g id="Layer_1-2" data-name="Layer 1">
    <path class="cls-2" d="m115.36,147.43c-9.95,5.19-18.7,8.5-25.2,10.62-23.19,7.57-33.7,5.26-38,4-1.29-.38-2.33-.75-3-1v-65l66-27,.2,78.38Z"/>
    <polygon class="cls-2" points="125.16 144 125.16 55 82.16 72 82.16 62 149.16 34 149.16 132 125.16 144"/>
    <polygon class="cls-2" points="179.16 114 158.16 127 158.16 21 116.16 38 116.16 28 182.16 0 182.16 105 172.16 107 179.16 114"/>
    <path class="cls-2" d="m212.16,103l-35,5,6,6c-2.7,1.77-6.46,4.2-11,7-4.12,2.54-12.04,7.34-28,16-14.18,7.69-21.27,11.54-29,15-7.7,3.45-15.5,6.4-24,9-6.29,1.92-10.32,3.16-16,4-9.99,1.48-22.56,3.35-27-3-3.67-5.25-.06-13.63,1-16-1.65,1.32-6.03,5.21-7.83,11.92-.55,2.06-2.3,8.57.83,14.08,4.87,8.57,18.18,8.86,25,9,8.3.18,17-2,17-2h0c4.19-.98,8.09-2.16,14-4,3.6-1.12,9.14-2.86,16.35-5.57,7.22-2.71,12.78-5.14,15.65-6.43,12.96-5.86,22.14-11.02,31-16,12.75-7.16,22.57-13.44,28-17,2.47-1.62,4.53-3.01,6-4,1.67,2,3.33,4,5,6l12-29Z"/>
    <text class="cls-1" transform="translate(28.65 201.33)"><tspan x="0" y="0">CONSULTORÍA EMPRESARIAL</tspan></text>
    <text class="cls-3" transform="translate(0 220.09)"><tspan x="0" y="0">JARAMILLO &amp; ASOCIADOS SAS</tspan></text>
    <path class="cls-2" d="m36.77,173.14c.98,1.81,2.82,4.64,6,7,3.4,2.53,6.92,3.48,10,4,16.29,2.75,38-3,38-3,2.3-.61,12.96-3.47,27-9,16.2-6.38,28.25-12.82,36-17,7.3-3.94,12.24-6.92,19-11,0,0,10.85-6.54,17.83-11.87,0,0,.17-.13.17-.13,0,0,0,0,0,0-15.11,12.55-34,23-34,23-2.5,1.43-5.2,2.98-9,5-22.1,11.76-40.04,17.6-48,20-3.12.94-4.68,1.41-7,2-5.05,1.28-44.02,11.17-54-4-1.26-1.91-1.77-3.81-2-5Z"/>
  </g>
</svg>